<svg xmlns="http://www.w3.org/2000/svg" viewBox="0 0 285.17 60.41"><defs><style>.cls-1{fill:#00a3b0;}.cls-2{fill:#01435f;}.cls-3{fill:#005479;}.cls-4{fill:#f3a41e;}.cls-5{fill:#fff;}</style></defs><g id="Layer_2" data-name="Layer 2"><g id="Layer_1-2" data-name="Layer 1"><path class="cls-1" d="M28.86,35.8c-3.3-6.4-16.4-9.6-24.1-15.3-.7-.6-2.9,9.2,7.9,14.7,17,8.7,12.4,24.2,12.4,24.2S34.16,46.2,28.86,35.8Z"/><path class="cls-2" d="M61.46,53.1S34.86,22,25.06,14.9c-8.4-6.2-4.7-12-10.1-13.4C3.36-1.4,3.26,5.2,4,11.2c.7,6.5-.5,10.9.2,14.1a10.06,10.06,0,0,0,5.4,7.1C28,41.4,61.46,53.1,61.46,53.1Z"/><path class="cls-3" d="M35.06,36.1c-3.2-6.5-14.1-21.5-23.6-20.4s-13.2,15.2,5,21C39.76,44.2,31,59.9,31,59.9S40.66,47.3,35.06,36.1Z"/><path class="cls-1" d="M55.06,38.6s-22.1-.1-37.3-4.9c-14-4.4-15.5-10.3-14.5-14.8C4.56,13.3,16.16,6,26,15.2A242.32,242.32,0,0,0,55.06,38.6Z"/><path class="cls-4" d="M1.86,11.7A3,3,0,0,1,.16,7.9V7.8c.8-2.1,3.6-2.3,3.6-2.3s0,2.2,1.7,2.8,2.6,1,2.6,1S.56,8.6,1.86,11.7Z"/><path class="cls-5" d="M6.76,5.7a1,1,0,0,0,1.1,1h0A1.13,1.13,0,0,0,9,5.5V5.2Z"/><path class="cls-5" d="M158,60.3l-7.4-17.2h-36.5l-7.7,17.2h-2.1l27.2-60H134l26.1,60ZM132.66,1.5l-17.8,40H150Z"/><path class="cls-5" d="M178.06,60.3V.3H180V58.6h31.2v1.7Z"/><path class="cls-5" d="M228.46,60.3V.3h1.9v60Z"/><path class="cls-5" d="M83.56,2.4V59.8h-2V2.4h-21V.7h44V2.4Z"/><path class="cls-5" d="M285.16,45.1a14.43,14.43,0,0,1-1.5,6.5,16.47,16.47,0,0,1-3.9,4.8,16.06,16.06,0,0,1-5.8,3,23,23,0,0,1-6.9,1A24.87,24.87,0,0,1,257,58.5a22.12,22.12,0,0,1-7.6-5.1l1.4-1.2a18.82,18.82,0,0,0,7.5,4.9,24.16,24.16,0,0,0,8.8,1.7,21.63,21.63,0,0,0,6.2-.9,16.1,16.1,0,0,0,5.2-2.7,13.57,13.57,0,0,0,3.6-4.3,11.74,11.74,0,0,0,1.3-5.8,10.84,10.84,0,0,0-1.4-5.6,15.22,15.22,0,0,0-3.7-3.9,17.19,17.19,0,0,0-5.2-2.7c-2-.7-3.9-1.4-5.9-2-2.5-.8-4.7-1.5-6.8-2.4a21.66,21.66,0,0,1-5.3-3.1,16.12,16.12,0,0,1-3.5-4.3,13.47,13.47,0,0,1-1.2-6.2,12.48,12.48,0,0,1,1.5-6.3,13.94,13.94,0,0,1,4-4.7,19.08,19.08,0,0,1,5.9-2.9,23.7,23.7,0,0,1,7-1,23.12,23.12,0,0,1,8.6,1.7,16.67,16.67,0,0,1,6.7,4.7l-1.4,1.2a16.4,16.4,0,0,0-6-4.4,20.06,20.06,0,0,0-8-1.6,23.31,23.31,0,0,0-5.9.8,17.19,17.19,0,0,0-5.3,2.5,14.87,14.87,0,0,0-3.8,4.1,11,11,0,0,0-1.4,5.9,11,11,0,0,0,1.3,5.6,14.07,14.07,0,0,0,3.4,3.9,22.72,22.72,0,0,0,4.8,2.7c1.8.7,3.6,1.3,5.4,1.9,2.5.8,4.9,1.6,7.1,2.5a21.32,21.32,0,0,1,5.8,3,13.41,13.41,0,0,1,3.9,4.3A15.05,15.05,0,0,1,285.16,45.1Z"/></g></g></svg>