<svg xmlns="http://www.w3.org/2000/svg" viewBox="0 0 61.46 59.11"><defs><style>.cls-1{fill:#00a3b0;}.cls-2{fill:#01435f;}.cls-3{fill:#005479;}.cls-4{fill:#f3a41e;}.cls-5{fill:#fff;}</style></defs><g id="Layer_2" data-name="Layer 2"><g id="Layer_1-2" data-name="Layer 1"><path class="cls-1" d="M28.86,35c-3.3-6.4-16.4-9.6-24.1-15.3-.7-.6-2.9,9.2,7.9,14.7,17,8.7,12.4,24.2,12.4,24.2S34.16,45.41,28.86,35Z"/><path class="cls-2" d="M61.46,52.31s-26.6-31.1-36.4-38.2c-8.4-6.2-4.7-12-10.1-13.4-11.6-2.9-11.7,3.7-11,9.7.7,6.5-.5,10.9.2,14.1a10.06,10.06,0,0,0,5.4,7.1C28,40.61,61.46,52.31,61.46,52.31Z"/><path class="cls-3" d="M35.06,35.31c-3.2-6.5-14.1-21.5-23.6-20.4s-13.2,15.2,5,21c23.3,7.5,14.5,23.2,14.5,23.2S40.66,46.51,35.06,35.31Z"/><path class="cls-1" d="M55.06,37.81s-22.1-.1-37.3-4.9c-14-4.4-15.5-10.3-14.5-14.8,1.3-5.6,12.9-12.9,22.7-3.7A242.32,242.32,0,0,0,55.06,37.81Z"/><path class="cls-4" d="M1.86,10.91a3,3,0,0,1-1.7-3.8V7c.8-2.1,3.6-2.3,3.6-2.3s0,2.2,1.7,2.8,2.6,1,2.6,1S.56,7.81,1.86,10.91Z"/><path class="cls-5" d="M6.76,4.91a1,1,0,0,0,1.1,1h0A1.13,1.13,0,0,0,9,4.71v-.3Z"/></g></g></svg>