<svg id="Layer_1" data-name="Layer 1" xmlns="http://www.w3.org/2000/svg" viewBox="0 0 286.81 60.4"><defs><style>.cls-1{fill:#00A3B0;}.cls-2{fill:#01435f;}.cls-3{fill:#005479;}.cls-4{fill:#f3a41e;}.cls-5{fill:#fff;}</style></defs><title>navbar logo</title><path class="cls-1" d="M30.5,35.75c-3.33-6.43-16.41-9.64-24.1-15.26-.69-.58-2.87,9.18,7.92,14.69,17,8.72,12.39,24.21,12.39,24.21S35.78,46.19,30.5,35.75Z"/><path class="cls-2" d="M63.09,53.08S36.46,22,26.71,14.86c-8.38-6.19-4.7-12-10.1-13.42C5-1.43,4.91,5.23,5.59,11.19c.69,6.54-.45,10.9.23,14.12a10.07,10.07,0,0,0,5.4,7.11C29.58,41.37,63.09,53.08,63.09,53.08Z"/><path class="cls-3" d="M36.69,36.1c-3.21-6.55-14.11-21.46-23.64-20.43s-13.19,15.15,5.05,21c23.3,7.46,14.46,23.18,14.46,23.18S42.32,47.34,36.69,36.1Z"/><path class="cls-1" d="M56.66,38.62s-22.15-.12-37.29-4.93c-14-4.37-15.5-10.33-14.46-14.81C6.17,13.26,17.76,6,27.63,15.21A248.57,248.57,0,0,0,56.66,38.62Z"/><path class="cls-4" d="M3.53,11.65a2.92,2.92,0,0,1-1.61-3.9c.81-2.07,3.56-2.3,3.56-2.3s0,2.19,1.72,2.76,2.64,1,2.64,1S2.15,8.55,3.53,11.65Z"/><path class="cls-5" d="M8.35,5.68a1.06,1.06,0,0,0,1.15,1,1.15,1.15,0,0,0,1.14-1.15V5.23Z"/><path d="M159.61,60.3l-7.4-17.2h-36.5L108,60.3h-2.1l27.2-60h2.5l26.1,60ZM134.31,1.5l-17.8,40h35.1Z"/><path d="M179.71,60.3V.3h1.9V58.6h31.2v1.7Z"/><path d="M230.11,60.3V.3H232v60Z"/><path d="M85.21,2.4V59.8h-2V2.4h-21V.7h44V2.4Z"/><path d="M286.81,45.1a13.84,13.84,0,0,1-1.5,6.5,15.26,15.26,0,0,1-3.9,4.8,17.71,17.71,0,0,1-5.8,3,22.59,22.59,0,0,1-6.9,1,25.26,25.26,0,0,1-10.1-1.9,22.07,22.07,0,0,1-7.6-5.1l1.4-1.2a18.82,18.82,0,0,0,7.5,4.9,24.16,24.16,0,0,0,8.8,1.7,20.65,20.65,0,0,0,6.2-.9,15.14,15.14,0,0,0,5.2-2.7,13.57,13.57,0,0,0,3.6-4.3,12.09,12.09,0,0,0,1.3-5.8,10.81,10.81,0,0,0-1.4-5.6,15.22,15.22,0,0,0-3.7-3.9,19.64,19.64,0,0,0-5.2-2.7c-2-.7-3.9-1.4-5.9-2-2.5-.8-4.7-1.5-6.8-2.4a21.12,21.12,0,0,1-5.3-3.1,14.41,14.41,0,0,1-3.5-4.3,14.28,14.28,0,0,1-1.2-6.2,12.76,12.76,0,0,1,1.5-6.3,13.94,13.94,0,0,1,4-4.7,18.07,18.07,0,0,1,5.9-2.9,23.24,23.24,0,0,1,7-1A22.74,22.74,0,0,1,279,1.7a17.26,17.26,0,0,1,6.7,4.7l-1.4,1.2a16.71,16.71,0,0,0-6-4.4,20.76,20.76,0,0,0-8-1.6,23.31,23.31,0,0,0-5.9.8,17.19,17.19,0,0,0-5.3,2.5,13.5,13.5,0,0,0-3.8,4.1,11.22,11.22,0,0,0-1.4,5.9,10.8,10.8,0,0,0,1.3,5.6,12.61,12.61,0,0,0,3.4,3.9,18.65,18.65,0,0,0,4.8,2.7c1.8.7,3.6,1.3,5.4,1.9,2.5.8,4.9,1.6,7.1,2.5a24.38,24.38,0,0,1,5.8,3,13.31,13.31,0,0,1,3.9,4.3A15.39,15.39,0,0,1,286.81,45.1Z"/></svg>